# xmcd
#
# Track frame offsets:
#	150
#	14036
#	29325
#	39998
#	70036
#	84984
#	95943
#	110987
#	124579
#	141194
#	152870
#	166084
#	174220
#	191449
#	205946
#
# Disc length: 2941 seconds
#
# Revision: 1
# Processed by: cddbd v1.5.2PL0 Copyright (c) Steve Scherf et al.
# Submitted via: audiograbber 1.83.01
#
DISCID=c90b7b0f
DTITLE=Palermo Boogie Gang - Red Hot Blues
DYEAR=1900
DGENRE=Blues
TTITLE0=Talk To Your Daughter
TTITLE1=Red Hot Blues
TTITLE2=I Can't Know Everything
TTITLE3=Blues With The Feeling
TTITLE4=Shakey Bully Stomp
TTITLE5=Think It Over One More Time
TTITLE6=The Thrill Is Gone
TTITLE7=It Takes Time
TTITLE8=Crazy About An Automobile
TTITLE9=Baby Why?
TTITLE10=Josephine C'est Pa Ma Femme
TTITLE11=The Midnight Flea's Kiss
TTITLE12=Jig Head Blues
TTITLE13=Don't Stand Crying Now
TTITLE14=Lady Be Good
EXTD=
EXTT0=
EXTT1=
EXTT2=
EXTT3=
EXTT4=
EXTT5=
EXTT6=
EXTT7=
EXTT8=
EXTT9=
EXTT10=
EXTT11=
EXTT12=
EXTT13=
EXTT14=
PLAYORDER=
